<svg width="512" height="512" viewBox="0 0 512 512" fill="none" xmlns="http://www.w3.org/2000/svg">
<g clip-path="url(#clip0_1_2)">
<path d="M145.44 214.85L131.52 256H96L155.58 96H196.67L256 256H218.66L204.74 214.85H145.44ZM197.73 191.3L176 126.59H174.43L152.7 191.29H197.76H197.73V191.3Z" fill="#30ADC6"/>
<path d="M0 64C0 28.65 28.65 0 64 0H288C323.35 0 352 28.65 352 64V160H448C483.35 160 512 188.65 512 224V448C512 483.35 483.35 512 448 512H224C188.65 512 160 483.35 160 448V352H64C28.65 352 0 323.35 0 288V64ZM64 32C46.33 32 32 46.33 32 64V288C32 305.67 46.33 320 64 320H288C305.67 320 320 305.67 320 288V64C320 46.33 305.67 32 288 32H64ZM292.42 351.84C298.6 361.47 305.28 370.5 312.58 378.91C288.64 397.31 259.04 410.94 224 420.25C229.7 427.19 238.43 440.57 241.76 447.99C277.76 436.5 308.32 420.98 334.11 400.18C358.97 421.46 389.76 437.46 427.87 447.28C432.13 439.15 441.12 425.74 448 418.8C412 410.7 382.18 396.59 357.76 377.71C379.55 353.81 396.86 324.88 409.63 289.49H448V256H352V289.5H376.48C366.3 316.51 352.8 338.97 335.78 357.66C331.08 352.65 326.64 347.4 322.5 341.92C313.47 347.71 303.12 351.12 292.42 351.84Z" fill="#30ADC6"/>
</g>
<defs>
<clipPath id="clip0_1_2">
<rect width="512" height="512" fill="white"/>
</clipPath>
</defs>
</svg>
